<?xml version="1.0" encoding="utf-8" standalone="no"?>
<!DOCTYPE svg PUBLIC "-//W3C//DTD SVG 1.1//EN"
  "http://www.w3.org/Graphics/SVG/1.1/DTD/svg11.dtd">
<svg xmlns:xlink="http://www.w3.org/1999/xlink" width="576pt" height="367.2pt" viewBox="0 0 576 367.2" xmlns="http://www.w3.org/2000/svg" version="1.1">
 <metadata>
  <rdf:RDF xmlns:dc="http://purl.org/dc/elements/1.1/" xmlns:cc="http://creativecommons.org/ns#" xmlns:rdf="http://www.w3.org/1999/02/22-rdf-syntax-ns#">
   <cc:Work>
    <dc:type rdf:resource="http://purl.org/dc/dcmitype/StillImage"/>
    <dc:format>image/svg+xml</dc:format>
    <dc:creator>
     <cc:Agent>
      <dc:title>make_submit.py</dc:title>
     </cc:Agent>
    </dc:creator>
   </cc:Work>
  </rdf:RDF>
 </metadata>
 <defs>
  <style type="text/css">*{stroke-linejoin: round; stroke-linecap: butt}</style>
 </defs>
 <g id="figure_1">
  <g id="patch_1">
   <path d="M 0 367.2 
L 576 367.2 
L 576 0 
L 0 0 
z
" style="fill: #ffffff"/>
  </g>
  <g id="axes_1">
   <g id="patch_2">
    <path d="M 150.1 167.7128 
L 557.28 167.7128 
L 557.28 84.408 
L 150.1 84.408 
z
" style="fill: #ffffff"/>
   </g>
   <g id="matplotlib.axis_1">
    <g id="xtick_1">
     <g id="line2d_1">
      <defs>
       <path id="m5f4085701d" d="M 0 0 
L 0 3.5 
" style="stroke: #000000; stroke-width: 0.8"/>
      </defs>
      <g>
       <use xlink:href="#m5f4085701d" x="150.1" y="167.7128" style="stroke: #000000; stroke-width: 0.8"/>
      </g>
     </g>
     <g id="text_1">
      <!-- 0.0 -->
      <g transform="translate(142.148438 182.311237) scale(0.1 -0.1)">
       <defs>
        <path id="DejaVuSans-30" d="M 2034 4250 
Q 1547 4250 1301 3770 
Q 1056 3291 1056 2328 
Q 1056 1369 1301 889 
Q 1547 409 2034 409 
Q 2525 409 2770 889 
Q 3016 1369 3016 2328 
Q 3016 3291 2770 3770 
Q 2525 4250 2034 4250 
z
M 2034 4750 
Q 2819 4750 3233 4129 
Q 3647 3509 3647 2328 
Q 3647 1150 3233 529 
Q 2819 -91 2034 -91 
Q 1250 -91 836 529 
Q 422 1150 422 2328 
Q 422 3509 836 4129 
Q 1250 4750 2034 4750 
z
" transform="scale(0.015625)"/>
        <path id="DejaVuSans-2e" d="M 684 794 
L 1344 794 
L 1344 0 
L 684 0 
L 684 794 
z
" transform="scale(0.015625)"/>
       </defs>
       <use xlink:href="#DejaVuSans-30"/>
       <use xlink:href="#DejaVuSans-2e" transform="translate(63.623047 0)"/>
       <use xlink:href="#DejaVuSans-30" transform="translate(95.410156 0)"/>
      </g>
     </g>
    </g>
    <g id="xtick_2">
     <g id="line2d_2">
      <g>
       <use xlink:href="#m5f4085701d" x="231.536" y="167.7128" style="stroke: #000000; stroke-width: 0.8"/>
      </g>
     </g>
     <g id="text_2">
      <!-- 0.2 -->
      <g transform="translate(223.584438 182.311237) scale(0.1 -0.1)">
       <defs>
        <path id="DejaVuSans-32" d="M 1228 531 
L 3431 531 
L 3431 0 
L 469 0 
L 469 531 
Q 828 903 1448 1529 
Q 2069 2156 2228 2338 
Q 2531 2678 2651 2914 
Q 2772 3150 2772 3378 
Q 2772 3750 2511 3984 
Q 2250 4219 1831 4219 
Q 1534 4219 1204 4116 
Q 875 4013 500 3803 
L 500 4441 
Q 881 4594 1212 4672 
Q 1544 4750 1819 4750 
Q 2544 4750 2975 4387 
Q 3406 4025 3406 3419 
Q 3406 3131 3298 2873 
Q 3191 2616 2906 2266 
Q 2828 2175 2409 1742 
Q 1991 1309 1228 531 
z
" transform="scale(0.015625)"/>
       </defs>
       <use xlink:href="#DejaVuSans-30"/>
       <use xlink:href="#DejaVuSans-2e" transform="translate(63.623047 0)"/>
       <use xlink:href="#DejaVuSans-32" transform="translate(95.410156 0)"/>
      </g>
     </g>
    </g>
    <g id="xtick_3">
     <g id="line2d_3">
      <g>
       <use xlink:href="#m5f4085701d" x="312.972" y="167.7128" style="stroke: #000000; stroke-width: 0.8"/>
      </g>
     </g>
     <g id="text_3">
      <!-- 0.4 -->
      <g transform="translate(305.020437 182.311237) scale(0.1 -0.1)">
       <defs>
        <path id="DejaVuSans-34" d="M 2419 4116 
L 825 1625 
L 2419 1625 
L 2419 4116 
z
M 2253 4666 
L 3047 4666 
L 3047 1625 
L 3713 1625 
L 3713 1100 
L 3047 1100 
L 3047 0 
L 2419 0 
L 2419 1100 
L 313 1100 
L 313 1709 
L 2253 4666 
z
" transform="scale(0.015625)"/>
       </defs>
       <use xlink:href="#DejaVuSans-30"/>
       <use xlink:href="#DejaVuSans-2e" transform="translate(63.623047 0)"/>
       <use xlink:href="#DejaVuSans-34" transform="translate(95.410156 0)"/>
      </g>
     </g>
    </g>
    <g id="xtick_4">
     <g id="line2d_4">
      <g>
       <use xlink:href="#m5f4085701d" x="394.408" y="167.7128" style="stroke: #000000; stroke-width: 0.8"/>
      </g>
     </g>
     <g id="text_4">
      <!-- 0.6 -->
      <g transform="translate(386.456437 182.311237) scale(0.1 -0.1)">
       <defs>
        <path id="DejaVuSans-36" d="M 2113 2584 
Q 1688 2584 1439 2293 
Q 1191 2003 1191 1497 
Q 1191 994 1439 701 
Q 1688 409 2113 409 
Q 2538 409 2786 701 
Q 3034 994 3034 1497 
Q 3034 2003 2786 2293 
Q 2538 2584 2113 2584 
z
M 3366 4563 
L 3366 3988 
Q 3128 4100 2886 4159 
Q 2644 4219 2406 4219 
Q 1781 4219 1451 3797 
Q 1122 3375 1075 2522 
Q 1259 2794 1537 2939 
Q 1816 3084 2150 3084 
Q 2853 3084 3261 2657 
Q 3669 2231 3669 1497 
Q 3669 778 3244 343 
Q 2819 -91 2113 -91 
Q 1303 -91 875 529 
Q 447 1150 447 2328 
Q 447 3434 972 4092 
Q 1497 4750 2381 4750 
Q 2619 4750 2861 4703 
Q 3103 4656 3366 4563 
z
" transform="scale(0.015625)"/>
       </defs>
       <use xlink:href="#DejaVuSans-30"/>
       <use xlink:href="#DejaVuSans-2e" transform="translate(63.623047 0)"/>
       <use xlink:href="#DejaVuSans-36" transform="translate(95.410156 0)"/>
      </g>
     </g>
    </g>
    <g id="xtick_5">
     <g id="line2d_5">
      <g>
       <use xlink:href="#m5f4085701d" x="475.844" y="167.7128" style="stroke: #000000; stroke-width: 0.8"/>
      </g>
     </g>
     <g id="text_5">
      <!-- 0.8 -->
      <g transform="translate(467.892437 182.311237) scale(0.1 -0.1)">
       <defs>
        <path id="DejaVuSans-38" d="M 2034 2216 
Q 1584 2216 1326 1975 
Q 1069 1734 1069 1313 
Q 1069 891 1326 650 
Q 1584 409 2034 409 
Q 2484 409 2743 651 
Q 3003 894 3003 1313 
Q 3003 1734 2745 1975 
Q 2488 2216 2034 2216 
z
M 1403 2484 
Q 997 2584 770 2862 
Q 544 3141 544 3541 
Q 544 4100 942 4425 
Q 1341 4750 2034 4750 
Q 2731 4750 3128 4425 
Q 3525 4100 3525 3541 
Q 3525 3141 3298 2862 
Q 3072 2584 2669 2484 
Q 3125 2378 3379 2068 
Q 3634 1759 3634 1313 
Q 3634 634 3220 271 
Q 2806 -91 2034 -91 
Q 1263 -91 848 271 
Q 434 634 434 1313 
Q 434 1759 690 2068 
Q 947 2378 1403 2484 
z
M 1172 3481 
Q 1172 3119 1398 2916 
Q 1625 2713 2034 2713 
Q 2441 2713 2670 2916 
Q 2900 3119 2900 3481 
Q 2900 3844 2670 4047 
Q 2441 4250 2034 4250 
Q 1625 4250 1398 4047 
Q 1172 3844 1172 3481 
z
" transform="scale(0.015625)"/>
       </defs>
       <use xlink:href="#DejaVuSans-30"/>
       <use xlink:href="#DejaVuSans-2e" transform="translate(63.623047 0)"/>
       <use xlink:href="#DejaVuSans-38" transform="translate(95.410156 0)"/>
      </g>
     </g>
    </g>
    <g id="xtick_6">
     <g id="line2d_6">
      <g>
       <use xlink:href="#m5f4085701d" x="557.28" y="167.7128" style="stroke: #000000; stroke-width: 0.8"/>
      </g>
     </g>
     <g id="text_6">
      <!-- 1.0 -->
      <g transform="translate(549.328437 182.311237) scale(0.1 -0.1)">
       <defs>
        <path id="DejaVuSans-31" d="M 794 531 
L 1825 531 
L 1825 4091 
L 703 3866 
L 703 4441 
L 1819 4666 
L 2450 4666 
L 2450 531 
L 3481 531 
L 3481 0 
L 794 0 
L 794 531 
z
" transform="scale(0.015625)"/>
       </defs>
       <use xlink:href="#DejaVuSans-31"/>
       <use xlink:href="#DejaVuSans-2e" transform="translate(63.623047 0)"/>
       <use xlink:href="#DejaVuSans-30" transform="translate(95.410156 0)"/>
      </g>
     </g>
    </g>
    <g id="text_7">
     <!-- Recall by class (fraction) -->
     <g transform="translate(292.3525 195.989362) scale(0.1 -0.1)">
      <defs>
       <path id="DejaVuSans-52" d="M 2841 2188 
Q 3044 2119 3236 1894 
Q 3428 1669 3622 1275 
L 4263 0 
L 3584 0 
L 2988 1197 
Q 2756 1666 2539 1819 
Q 2322 1972 1947 1972 
L 1259 1972 
L 1259 0 
L 628 0 
L 628 4666 
L 2053 4666 
Q 2853 4666 3247 4331 
Q 3641 3997 3641 3322 
Q 3641 2881 3436 2590 
Q 3231 2300 2841 2188 
z
M 1259 4147 
L 1259 2491 
L 2053 2491 
Q 2509 2491 2742 2702 
Q 2975 2913 2975 3322 
Q 2975 3731 2742 3939 
Q 2509 4147 2053 4147 
L 1259 4147 
z
" transform="scale(0.015625)"/>
       <path id="DejaVuSans-65" d="M 3597 1894 
L 3597 1613 
L 953 1613 
Q 991 1019 1311 708 
Q 1631 397 2203 397 
Q 2534 397 2845 478 
Q 3156 559 3463 722 
L 3463 178 
Q 3153 47 2828 -22 
Q 2503 -91 2169 -91 
Q 1331 -91 842 396 
Q 353 884 353 1716 
Q 353 2575 817 3079 
Q 1281 3584 2069 3584 
Q 2775 3584 3186 3129 
Q 3597 2675 3597 1894 
z
M 3022 2063 
Q 3016 2534 2758 2815 
Q 2500 3097 2075 3097 
Q 1594 3097 1305 2825 
Q 1016 2553 972 2059 
L 3022 2063 
z
" transform="scale(0.015625)"/>
       <path id="DejaVuSans-63" d="M 3122 3366 
L 3122 2828 
Q 2878 2963 2633 3030 
Q 2388 3097 2138 3097 
Q 1578 3097 1268 2742 
Q 959 2388 959 1747 
Q 959 1106 1268 751 
Q 1578 397 2138 397 
Q 2388 397 2633 464 
Q 2878 531 3122 666 
L 3122 134 
Q 2881 22 2623 -34 
Q 2366 -91 2075 -91 
Q 1284 -91 818 406 
Q 353 903 353 1747 
Q 353 2603 823 3093 
Q 1294 3584 2113 3584 
Q 2378 3584 2631 3529 
Q 2884 3475 3122 3366 
z
" transform="scale(0.015625)"/>
       <path id="DejaVuSans-61" d="M 2194 1759 
Q 1497 1759 1228 1600 
Q 959 1441 959 1056 
Q 959 750 1161 570 
Q 1363 391 1709 391 
Q 2188 391 2477 730 
Q 2766 1069 2766 1631 
L 2766 1759 
L 2194 1759 
z
M 3341 1997 
L 3341 0 
L 2766 0 
L 2766 531 
Q 2569 213 2275 61 
Q 1981 -91 1556 -91 
Q 1019 -91 701 211 
Q 384 513 384 1019 
Q 384 1609 779 1909 
Q 1175 2209 1959 2209 
L 2766 2209 
L 2766 2266 
Q 2766 2663 2505 2880 
Q 2244 3097 1772 3097 
Q 1472 3097 1187 3025 
Q 903 2953 641 2809 
L 641 3341 
Q 956 3463 1253 3523 
Q 1550 3584 1831 3584 
Q 2591 3584 2966 3190 
Q 3341 2797 3341 1997 
z
" transform="scale(0.015625)"/>
       <path id="DejaVuSans-6c" d="M 603 4863 
L 1178 4863 
L 1178 0 
L 603 0 
L 603 4863 
z
" transform="scale(0.015625)"/>
       <path id="DejaVuSans-20" transform="scale(0.015625)"/>
       <path id="DejaVuSans-62" d="M 3116 1747 
Q 3116 2381 2855 2742 
Q 2594 3103 2138 3103 
Q 1681 3103 1420 2742 
Q 1159 2381 1159 1747 
Q 1159 1113 1420 752 
Q 1681 391 2138 391 
Q 2594 391 2855 752 
Q 3116 1113 3116 1747 
z
M 1159 2969 
Q 1341 3281 1617 3432 
Q 1894 3584 2278 3584 
Q 2916 3584 3314 3078 
Q 3713 2572 3713 1747 
Q 3713 922 3314 415 
Q 2916 -91 2278 -91 
Q 1894 -91 1617 61 
Q 1341 213 1159 525 
L 1159 0 
L 581 0 
L 581 4863 
L 1159 4863 
L 1159 2969 
z
" transform="scale(0.015625)"/>
       <path id="DejaVuSans-79" d="M 2059 -325 
Q 1816 -950 1584 -1140 
Q 1353 -1331 966 -1331 
L 506 -1331 
L 506 -850 
L 844 -850 
Q 1081 -850 1212 -737 
Q 1344 -625 1503 -206 
L 1606 56 
L 191 3500 
L 800 3500 
L 1894 763 
L 2988 3500 
L 3597 3500 
L 2059 -325 
z
" transform="scale(0.015625)"/>
       <path id="DejaVuSans-73" d="M 2834 3397 
L 2834 2853 
Q 2591 2978 2328 3040 
Q 2066 3103 1784 3103 
Q 1356 3103 1142 2972 
Q 928 2841 928 2578 
Q 928 2378 1081 2264 
Q 1234 2150 1697 2047 
L 1894 2003 
Q 2506 1872 2764 1633 
Q 3022 1394 3022 966 
Q 3022 478 2636 193 
Q 2250 -91 1575 -91 
Q 1294 -91 989 -36 
Q 684 19 347 128 
L 347 722 
Q 666 556 975 473 
Q 1284 391 1588 391 
Q 1994 391 2212 530 
Q 2431 669 2431 922 
Q 2431 1156 2273 1281 
Q 2116 1406 1581 1522 
L 1381 1569 
Q 847 1681 609 1914 
Q 372 2147 372 2553 
Q 372 3047 722 3315 
Q 1072 3584 1716 3584 
Q 2034 3584 2315 3537 
Q 2597 3491 2834 3397 
z
" transform="scale(0.015625)"/>
       <path id="DejaVuSans-28" d="M 1984 4856 
Q 1566 4138 1362 3434 
Q 1159 2731 1159 2009 
Q 1159 1288 1364 580 
Q 1569 -128 1984 -844 
L 1484 -844 
Q 1016 -109 783 600 
Q 550 1309 550 2009 
Q 550 2706 781 3412 
Q 1013 4119 1484 4856 
L 1984 4856 
z
" transform="scale(0.015625)"/>
       <path id="DejaVuSans-66" d="M 2375 4863 
L 2375 4384 
L 1825 4384 
Q 1516 4384 1395 4259 
Q 1275 4134 1275 3809 
L 1275 3500 
L 2222 3500 
L 2222 3053 
L 1275 3053 
L 1275 0 
L 697 0 
L 697 3053 
L 147 3053 
L 147 3500 
L 697 3500 
L 697 3744 
Q 697 4328 969 4595 
Q 1241 4863 1831 4863 
L 2375 4863 
z
" transform="scale(0.015625)"/>
       <path id="DejaVuSans-72" d="M 2631 2963 
Q 2534 3019 2420 3045 
Q 2306 3072 2169 3072 
Q 1681 3072 1420 2755 
Q 1159 2438 1159 1844 
L 1159 0 
L 581 0 
L 581 3500 
L 1159 3500 
L 1159 2956 
Q 1341 3275 1631 3429 
Q 1922 3584 2338 3584 
Q 2397 3584 2469 3576 
Q 2541 3569 2628 3553 
L 2631 2963 
z
" transform="scale(0.015625)"/>
       <path id="DejaVuSans-74" d="M 1172 4494 
L 1172 3500 
L 2356 3500 
L 2356 3053 
L 1172 3053 
L 1172 1153 
Q 1172 725 1289 603 
Q 1406 481 1766 481 
L 2356 481 
L 2356 0 
L 1766 0 
Q 1100 0 847 248 
Q 594 497 594 1153 
L 594 3053 
L 172 3053 
L 172 3500 
L 594 3500 
L 594 4494 
L 1172 4494 
z
" transform="scale(0.015625)"/>
       <path id="DejaVuSans-69" d="M 603 3500 
L 1178 3500 
L 1178 0 
L 603 0 
L 603 3500 
z
M 603 4863 
L 1178 4863 
L 1178 4134 
L 603 4134 
L 603 4863 
z
" transform="scale(0.015625)"/>
       <path id="DejaVuSans-6f" d="M 1959 3097 
Q 1497 3097 1228 2736 
Q 959 2375 959 1747 
Q 959 1119 1226 758 
Q 1494 397 1959 397 
Q 2419 397 2687 759 
Q 2956 1122 2956 1747 
Q 2956 2369 2687 2733 
Q 2419 3097 1959 3097 
z
M 1959 3584 
Q 2709 3584 3137 3096 
Q 3566 2609 3566 1747 
Q 3566 888 3137 398 
Q 2709 -91 1959 -91 
Q 1206 -91 779 398 
Q 353 888 353 1747 
Q 353 2609 779 3096 
Q 1206 3584 1959 3584 
z
" transform="scale(0.015625)"/>
       <path id="DejaVuSans-6e" d="M 3513 2113 
L 3513 0 
L 2938 0 
L 2938 2094 
Q 2938 2591 2744 2837 
Q 2550 3084 2163 3084 
Q 1697 3084 1428 2787 
Q 1159 2491 1159 1978 
L 1159 0 
L 581 0 
L 581 3500 
L 1159 3500 
L 1159 2956 
Q 1366 3272 1645 3428 
Q 1925 3584 2291 3584 
Q 2894 3584 3203 3211 
Q 3513 2838 3513 2113 
z
" transform="scale(0.015625)"/>
       <path id="DejaVuSans-29" d="M 513 4856 
L 1013 4856 
Q 1481 4119 1714 3412 
Q 1947 2706 1947 2009 
Q 1947 1309 1714 600 
Q 1481 -109 1013 -844 
L 513 -844 
Q 928 -128 1133 580 
Q 1338 1288 1338 2009 
Q 1338 2731 1133 3434 
Q 928 4138 513 4856 
z
" transform="scale(0.015625)"/>
      </defs>
      <use xlink:href="#DejaVuSans-52"/>
      <use xlink:href="#DejaVuSans-65" transform="translate(64.982422 0)"/>
      <use xlink:href="#DejaVuSans-63" transform="translate(126.505859 0)"/>
      <use xlink:href="#DejaVuSans-61" transform="translate(181.486328 0)"/>
      <use xlink:href="#DejaVuSans-6c" transform="translate(242.765625 0)"/>
      <use xlink:href="#DejaVuSans-6c" transform="translate(270.548828 0)"/>
      <use xlink:href="#DejaVuSans-20" transform="translate(298.332031 0)"/>
      <use xlink:href="#DejaVuSans-62" transform="translate(330.119141 0)"/>
      <use xlink:href="#DejaVuSans-79" transform="translate(393.595703 0)"/>
      <use xlink:href="#DejaVuSans-20" transform="translate(452.775391 0)"/>
      <use xlink:href="#DejaVuSans-63" transform="translate(484.5625 0)"/>
      <use xlink:href="#DejaVuSans-6c" transform="translate(539.542969 0)"/>
      <use xlink:href="#DejaVuSans-61" transform="translate(567.326172 0)"/>
      <use xlink:href="#DejaVuSans-73" transform="translate(628.605469 0)"/>
      <use xlink:href="#DejaVuSans-73" transform="translate(680.705078 0)"/>
      <use xlink:href="#DejaVuSans-20" transform="translate(732.804688 0)"/>
      <use xlink:href="#DejaVuSans-28" transform="translate(764.591797 0)"/>
      <use xlink:href="#DejaVuSans-66" transform="translate(803.605469 0)"/>
      <use xlink:href="#DejaVuSans-72" transform="translate(838.810547 0)"/>
      <use xlink:href="#DejaVuSans-61" transform="translate(879.923828 0)"/>
      <use xlink:href="#DejaVuSans-63" transform="translate(941.203125 0)"/>
      <use xlink:href="#DejaVuSans-74" transform="translate(996.183594 0)"/>
      <use xlink:href="#DejaVuSans-69" transform="translate(1035.392578 0)"/>
      <use xlink:href="#DejaVuSans-6f" transform="translate(1063.175781 0)"/>
      <use xlink:href="#DejaVuSans-6e" transform="translate(1124.357422 0)"/>
      <use xlink:href="#DejaVuSans-29" transform="translate(1187.736328 0)"/>
     </g>
    </g>
   </g>
   <g id="matplotlib.axis_2">
    <g id="ytick_1">
     <g id="line2d_7">
      <path d="M 150.1 156.762415 
L 557.28 156.762415 
" clip-path="url(#pf7b4a2df8c)" style="fill: none; stroke: #d9dde2; stroke-opacity: 0.85; stroke-width: 0.65; stroke-linecap: square"/>
     </g>
     <g id="line2d_8">
      <defs>
       <path id="mc1bff710c6" d="M 0 0 
L -3.5 0 
" style="stroke: #000000; stroke-width: 0.8"/>
      </defs>
      <g>
       <use xlink:href="#mc1bff710c6" x="150.1" y="156.762415" style="stroke: #000000; stroke-width: 0.8"/>
      </g>
     </g>
     <g id="text_8">
      <!-- SENSOR_FAULT -->
      <g transform="translate(67.479687 160.473352) scale(0.1 -0.1)">
       <defs>
        <path id="DejaVuSans-53" d="M 3425 4513 
L 3425 3897 
Q 3066 4069 2747 4153 
Q 2428 4238 2131 4238 
Q 1616 4238 1336 4038 
Q 1056 3838 1056 3469 
Q 1056 3159 1242 3001 
Q 1428 2844 1947 2747 
L 2328 2669 
Q 3034 2534 3370 2195 
Q 3706 1856 3706 1288 
Q 3706 609 3251 259 
Q 2797 -91 1919 -91 
Q 1588 -91 1214 -16 
Q 841 59 441 206 
L 441 856 
Q 825 641 1194 531 
Q 1563 422 1919 422 
Q 2459 422 2753 634 
Q 3047 847 3047 1241 
Q 3047 1584 2836 1778 
Q 2625 1972 2144 2069 
L 1759 2144 
Q 1053 2284 737 2584 
Q 422 2884 422 3419 
Q 422 4038 858 4394 
Q 1294 4750 2059 4750 
Q 2388 4750 2728 4690 
Q 3069 4631 3425 4513 
z
" transform="scale(0.015625)"/>
        <path id="DejaVuSans-45" d="M 628 4666 
L 3578 4666 
L 3578 4134 
L 1259 4134 
L 1259 2753 
L 3481 2753 
L 3481 2222 
L 1259 2222 
L 1259 531 
L 3634 531 
L 3634 0 
L 628 0 
L 628 4666 
z
" transform="scale(0.015625)"/>
        <path id="DejaVuSans-4e" d="M 628 4666 
L 1478 4666 
L 3547 763 
L 3547 4666 
L 4159 4666 
L 4159 0 
L 3309 0 
L 1241 3903 
L 1241 0 
L 628 0 
L 628 4666 
z
" transform="scale(0.015625)"/>
        <path id="DejaVuSans-4f" d="M 2522 4238 
Q 1834 4238 1429 3725 
Q 1025 3213 1025 2328 
Q 1025 1447 1429 934 
Q 1834 422 2522 422 
Q 3209 422 3611 934 
Q 4013 1447 4013 2328 
Q 4013 3213 3611 3725 
Q 3209 4238 2522 4238 
z
M 2522 4750 
Q 3503 4750 4090 4092 
Q 4678 3434 4678 2328 
Q 4678 1225 4090 567 
Q 3503 -91 2522 -91 
Q 1538 -91 948 565 
Q 359 1222 359 2328 
Q 359 3434 948 4092 
Q 1538 4750 2522 4750 
z
" transform="scale(0.015625)"/>
        <path id="DejaVuSans-5f" d="M 3263 -1063 
L 3263 -1509 
L -63 -1509 
L -63 -1063 
L 3263 -1063 
z
" transform="scale(0.015625)"/>
        <path id="DejaVuSans-46" d="M 628 4666 
L 3309 4666 
L 3309 4134 
L 1259 4134 
L 1259 2759 
L 3109 2759 
L 3109 2228 
L 1259 2228 
L 1259 0 
L 628 0 
L 628 4666 
z
" transform="scale(0.015625)"/>
        <path id="DejaVuSans-41" d="M 2188 4044 
L 1331 1722 
L 3047 1722 
L 2188 4044 
z
M 1831 4666 
L 2547 4666 
L 4325 0 
L 3669 0 
L 3244 1197 
L 1141 1197 
L 716 0 
L 50 0 
L 1831 4666 
z
" transform="scale(0.015625)"/>
        <path id="DejaVuSans-55" d="M 556 4666 
L 1191 4666 
L 1191 1831 
Q 1191 1081 1462 751 
Q 1734 422 2344 422 
Q 2950 422 3222 751 
Q 3494 1081 3494 1831 
L 3494 4666 
L 4128 4666 
L 4128 1753 
Q 4128 841 3676 375 
Q 3225 -91 2344 -91 
Q 1459 -91 1007 375 
Q 556 841 556 1753 
L 556 4666 
z
" transform="scale(0.015625)"/>
        <path id="DejaVuSans-4c" d="M 628 4666 
L 1259 4666 
L 1259 531 
L 3531 531 
L 3531 0 
L 628 0 
L 628 4666 
z
" transform="scale(0.015625)"/>
        <path id="DejaVuSans-54" d="M -19 4666 
L 3928 4666 
L 3928 4134 
L 2272 4134 
L 2272 0 
L 1638 0 
L 1638 4134 
L -19 4134 
L -19 4666 
z
" transform="scale(0.015625)"/>
       </defs>
       <use xlink:href="#DejaVuSans-53"/>
       <use xlink:href="#DejaVuSans-45" transform="translate(63.476562 0)"/>
       <use xlink:href="#DejaVuSans-4e" transform="translate(126.660156 0)"/>
       <use xlink:href="#DejaVuSans-53" transform="translate(201.464844 0)"/>
       <use xlink:href="#DejaVuSans-4f" transform="translate(264.941406 0)"/>
       <use xlink:href="#DejaVuSans-52" transform="translate(343.652344 0)"/>
       <use xlink:href="#DejaVuSans-5f" transform="translate(413.134766 0)"/>
       <use xlink:href="#DejaVuSans-46" transform="translate(463.134766 0)"/>
       <use xlink:href="#DejaVuSans-41" transform="translate(511.529297 0)"/>
       <use xlink:href="#DejaVuSans-55" transform="translate(579.9375 0)"/>
       <use xlink:href="#DejaVuSans-4c" transform="translate(653.130859 0)"/>
       <use xlink:href="#DejaVuSans-54" transform="translate(695.09375 0)"/>
      </g>
     </g>
    </g>
    <g id="ytick_2">
     <g id="line2d_9">
      <path d="M 150.1 136.294405 
L 557.28 136.294405 
" clip-path="url(#pf7b4a2df8c)" style="fill: none; stroke: #d9dde2; stroke-opacity: 0.85; stroke-width: 0.65; stroke-linecap: square"/>
     </g>
     <g id="line2d_10">
      <g>
       <use xlink:href="#mc1bff710c6" x="150.1" y="136.294405" style="stroke: #000000; stroke-width: 0.8"/>
      </g>
     </g>
     <g id="text_9">
      <!-- DATA_QUALITY -->
      <g transform="translate(69.567187 140.005342) scale(0.1 -0.1)">
       <defs>
        <path id="DejaVuSans-44" d="M 1259 4147 
L 1259 519 
L 2022 519 
Q 2988 519 3436 956 
Q 3884 1394 3884 2338 
Q 3884 3275 3436 3711 
Q 2988 4147 2022 4147 
L 1259 4147 
z
M 628 4666 
L 1925 4666 
Q 3281 4666 3915 4102 
Q 4550 3538 4550 2338 
Q 4550 1131 3912 565 
Q 3275 0 1925 0 
L 628 0 
L 628 4666 
z
" transform="scale(0.015625)"/>
        <path id="DejaVuSans-51" d="M 2522 4238 
Q 1834 4238 1429 3725 
Q 1025 3213 1025 2328 
Q 1025 1447 1429 934 
Q 1834 422 2522 422 
Q 3209 422 3611 934 
Q 4013 1447 4013 2328 
Q 4013 3213 3611 3725 
Q 3209 4238 2522 4238 
z
M 3406 84 
L 4238 -825 
L 3475 -825 
L 2784 -78 
Q 2681 -84 2626 -87 
Q 2572 -91 2522 -91 
Q 1538 -91 948 567 
Q 359 1225 359 2328 
Q 359 3434 948 4092 
Q 1538 4750 2522 4750 
Q 3503 4750 4090 4092 
Q 4678 3434 4678 2328 
Q 4678 1516 4351 937 
Q 4025 359 3406 84 
z
" transform="scale(0.015625)"/>
        <path id="DejaVuSans-49" d="M 628 4666 
L 1259 4666 
L 1259 0 
L 628 0 
L 628 4666 
z
" transform="scale(0.015625)"/>
        <path id="DejaVuSans-59" d="M -13 4666 
L 666 4666 
L 1959 2747 
L 3244 4666 
L 3922 4666 
L 2272 2222 
L 2272 0 
L 1638 0 
L 1638 2222 
L -13 4666 
z
" transform="scale(0.015625)"/>
       </defs>
       <use xlink:href="#DejaVuSans-44"/>
       <use xlink:href="#DejaVuSans-41" transform="translate(75.251953 0)"/>
       <use xlink:href="#DejaVuSans-54" transform="translate(135.910156 0)"/>
       <use xlink:href="#DejaVuSans-41" transform="translate(189.244141 0)"/>
       <use xlink:href="#DejaVuSans-5f" transform="translate(257.652344 0)"/>
       <use xlink:href="#DejaVuSans-51" transform="translate(307.652344 0)"/>
       <use xlink:href="#DejaVuSans-55" transform="translate(386.363281 0)"/>
       <use xlink:href="#DejaVuSans-41" transform="translate(459.556641 0)"/>
       <use xlink:href="#DejaVuSans-4c" transform="translate(527.964844 0)"/>
       <use xlink:href="#DejaVuSans-49" transform="translate(583.677734 0)"/>
       <use xlink:href="#DejaVuSans-54" transform="translate(613.169922 0)"/>
       <use xlink:href="#DejaVuSans-59" transform="translate(674.253906 0)"/>
      </g>
     </g>
    </g>
    <g id="ytick_3">
     <g id="line2d_11">
      <path d="M 150.1 115.826395 
L 557.28 115.826395 
" clip-path="url(#pf7b4a2df8c)" style="fill: none; stroke: #d9dde2; stroke-opacity: 0.85; stroke-width: 0.65; stroke-linecap: square"/>
     </g>
     <g id="line2d_12">
      <g>
       <use xlink:href="#mc1bff710c6" x="150.1" y="115.826395" style="stroke: #000000; stroke-width: 0.8"/>
      </g>
     </g>
     <g id="text_10">
      <!-- COMMUNICATION_FAILURE -->
      <g transform="translate(10.492188 119.537333) scale(0.1 -0.1)">
       <defs>
        <path id="DejaVuSans-43" d="M 4122 4306 
L 4122 3641 
Q 3803 3938 3442 4084 
Q 3081 4231 2675 4231 
Q 1875 4231 1450 3742 
Q 1025 3253 1025 2328 
Q 1025 1406 1450 917 
Q 1875 428 2675 428 
Q 3081 428 3442 575 
Q 3803 722 4122 1019 
L 4122 359 
Q 3791 134 3420 21 
Q 3050 -91 2638 -91 
Q 1578 -91 968 557 
Q 359 1206 359 2328 
Q 359 3453 968 4101 
Q 1578 4750 2638 4750 
Q 3056 4750 3426 4639 
Q 3797 4528 4122 4306 
z
" transform="scale(0.015625)"/>
        <path id="DejaVuSans-4d" d="M 628 4666 
L 1569 4666 
L 2759 1491 
L 3956 4666 
L 4897 4666 
L 4897 0 
L 4281 0 
L 4281 4097 
L 3078 897 
L 2444 897 
L 1241 4097 
L 1241 0 
L 628 0 
L 628 4666 
z
" transform="scale(0.015625)"/>
       </defs>
       <use xlink:href="#DejaVuSans-43"/>
       <use xlink:href="#DejaVuSans-4f" transform="translate(69.824219 0)"/>
       <use xlink:href="#DejaVuSans-4d" transform="translate(148.535156 0)"/>
       <use xlink:href="#DejaVuSans-4d" transform="translate(234.814453 0)"/>
       <use xlink:href="#DejaVuSans-55" transform="translate(321.09375 0)"/>
       <use xlink:href="#DejaVuSans-4e" transform="translate(394.287109 0)"/>
       <use xlink:href="#DejaVuSans-49" transform="translate(469.091797 0)"/>
       <use xlink:href="#DejaVuSans-43" transform="translate(498.583984 0)"/>
       <use xlink:href="#DejaVuSans-41" transform="translate(568.408203 0)"/>
       <use xlink:href="#DejaVuSans-54" transform="translate(629.066406 0)"/>
       <use xlink:href="#DejaVuSans-49" transform="translate(690.150391 0)"/>
       <use xlink:href="#DejaVuSans-4f" transform="translate(719.642578 0)"/>
       <use xlink:href="#DejaVuSans-4e" transform="translate(798.353516 0)"/>
       <use xlink:href="#DejaVuSans-5f" transform="translate(873.158203 0)"/>
       <use xlink:href="#DejaVuSans-46" transform="translate(923.158203 0)"/>
       <use xlink:href="#DejaVuSans-41" transform="translate(971.552734 0)"/>
       <use xlink:href="#DejaVuSans-49" transform="translate(1039.960938 0)"/>
       <use xlink:href="#DejaVuSans-4c" transform="translate(1069.453125 0)"/>
       <use xlink:href="#DejaVuSans-55" transform="translate(1120.166016 0)"/>
       <use xlink:href="#DejaVuSans-52" transform="translate(1193.359375 0)"/>
       <use xlink:href="#DejaVuSans-45" transform="translate(1262.841797 0)"/>
      </g>
     </g>
    </g>
    <g id="ytick_4">
     <g id="line2d_13">
      <path d="M 150.1 95.358385 
L 557.28 95.358385 
" clip-path="url(#pf7b4a2df8c)" style="fill: none; stroke: #d9dde2; stroke-opacity: 0.85; stroke-width: 0.65; stroke-linecap: square"/>
     </g>
     <g id="line2d_14">
      <g>
       <use xlink:href="#mc1bff710c6" x="150.1" y="95.358385" style="stroke: #000000; stroke-width: 0.8"/>
      </g>
     </g>
     <g id="text_11">
      <!-- noise_injected -->
      <g transform="translate(71.535937 99.157604) scale(0.1 -0.1)">
       <defs>
        <path id="DejaVuSans-6a" d="M 603 3500 
L 1178 3500 
L 1178 -63 
Q 1178 -731 923 -1031 
Q 669 -1331 103 -1331 
L -116 -1331 
L -116 -844 
L 38 -844 
Q 366 -844 484 -692 
Q 603 -541 603 -63 
L 603 3500 
z
M 603 4863 
L 1178 4863 
L 1178 4134 
L 603 4134 
L 603 4863 
z
" transform="scale(0.015625)"/>
        <path id="DejaVuSans-64" d="M 2906 2969 
L 2906 4863 
L 3481 4863 
L 3481 0 
L 2906 0 
L 2906 525 
Q 2725 213 2448 61 
Q 2172 -91 1784 -91 
Q 1150 -91 751 415 
Q 353 922 353 1747 
Q 353 2572 751 3078 
Q 1150 3584 1784 3584 
Q 2172 3584 2448 3432 
Q 2725 3281 2906 2969 
z
M 947 1747 
Q 947 1113 1208 752 
Q 1469 391 1925 391 
Q 2381 391 2643 752 
Q 2906 1113 2906 1747 
Q 2906 2381 2643 2742 
Q 2381 3103 1925 3103 
Q 1469 3103 1208 2742 
Q 947 2381 947 1747 
z
" transform="scale(0.015625)"/>
       </defs>
       <use xlink:href="#DejaVuSans-6e"/>
       <use xlink:href="#DejaVuSans-6f" transform="translate(63.378906 0)"/>
       <use xlink:href="#DejaVuSans-69" transform="translate(124.560547 0)"/>
       <use xlink:href="#DejaVuSans-73" transform="translate(152.34375 0)"/>
       <use xlink:href="#DejaVuSans-65" transform="translate(204.443359 0)"/>
       <use xlink:href="#DejaVuSans-5f" transform="translate(265.966797 0)"/>
       <use xlink:href="#DejaVuSans-69" transform="translate(315.966797 0)"/>
       <use xlink:href="#DejaVuSans-6e" transform="translate(343.75 0)"/>
       <use xlink:href="#DejaVuSans-6a" transform="translate(407.128906 0)"/>
       <use xlink:href="#DejaVuSans-65" transform="translate(434.912109 0)"/>
       <use xlink:href="#DejaVuSans-63" transform="translate(496.435547 0)"/>
       <use xlink:href="#DejaVuSans-74" transform="translate(551.416016 0)"/>
       <use xlink:href="#DejaVuSans-65" transform="translate(590.625 0)"/>
       <use xlink:href="#DejaVuSans-64" transform="translate(652.148438 0)"/>
      </g>
     </g>
    </g>
   </g>
   <g id="patch_3">
    <path d="M 150.1 163.926218 
L 473.783606 163.926218 
L 473.783606 159.423256 
L 150.1 159.423256 
z
" clip-path="url(#pf7b4a2df8c)" style="fill: #0072b2"/>
   </g>
   <g id="patch_4">
    <path d="M 150.1 143.458208 
L 485.180841 143.458208 
L 485.180841 138.955246 
L 150.1 138.955246 
z
" clip-path="url(#pf7b4a2df8c)" style="fill: #0072b2"/>
   </g>
   <g id="patch_5">
    <path d="M 150.1 122.990199 
L 429.779192 122.990199 
L 429.779192 118.487236 
L 150.1 118.487236 
z
" clip-path="url(#pf7b4a2df8c)" style="fill: #0072b2"/>
   </g>
   <g id="patch_6">
    <path d="M 150.1 102.522189 
L 470.945841 102.522189 
L 470.945841 98.019227 
L 150.1 98.019227 
z
" clip-path="url(#pf7b4a2df8c)" style="fill: #0072b2"/>
   </g>
   <g id="patch_7">
    <path d="M 150.1 159.013896 
L 150.1 159.013896 
L 150.1 154.510934 
L 150.1 154.510934 
z
" clip-path="url(#pf7b4a2df8c)" style="fill: #e69f00"/>
   </g>
   <g id="patch_8">
    <path d="M 150.1 138.545886 
L 150.1 138.545886 
L 150.1 134.042924 
L 150.1 134.042924 
z
" clip-path="url(#pf7b4a2df8c)" style="fill: #e69f00"/>
   </g>
   <g id="patch_9">
    <path d="M 150.1 118.077876 
L 150.1 118.077876 
L 150.1 113.574914 
L 150.1 113.574914 
z
" clip-path="url(#pf7b4a2df8c)" style="fill: #e69f00"/>
   </g>
   <g id="patch_10">
    <path d="M 150.1 97.609866 
L 150.1 97.609866 
L 150.1 93.106904 
L 150.1 93.106904 
z
" clip-path="url(#pf7b4a2df8c)" style="fill: #e69f00"/>
   </g>
   <g id="patch_11">
    <path d="M 150.1 154.101573 
L 150.1 154.101573 
L 150.1 149.598611 
L 150.1 149.598611 
z
" clip-path="url(#pf7b4a2df8c)" style="fill: #d55e00"/>
   </g>
   <g id="patch_12">
    <path d="M 150.1 133.633564 
L 150.1 133.633564 
L 150.1 129.130601 
L 150.1 129.130601 
z
" clip-path="url(#pf7b4a2df8c)" style="fill: #d55e00"/>
   </g>
   <g id="patch_13">
    <path d="M 150.1 113.165554 
L 150.1 113.165554 
L 150.1 108.662592 
L 150.1 108.662592 
z
" clip-path="url(#pf7b4a2df8c)" style="fill: #d55e00"/>
   </g>
   <g id="patch_14">
    <path d="M 150.1 92.697544 
L 150.1 92.697544 
L 150.1 88.194582 
L 150.1 88.194582 
z
" clip-path="url(#pf7b4a2df8c)" style="fill: #d55e00"/>
   </g>
   <g id="line2d_15">
    <path d="M 150.1 156.762415 
" clip-path="url(#pf7b4a2df8c)" style="fill: none; stroke: #e69f00; stroke-width: 1.5; stroke-linecap: square"/>
    <defs>
     <path id="mf3ecce0a3c" d="M 0 4.5 
L 0 -4.5 
" style="stroke: #e69f00; stroke-width: 2"/>
    </defs>
    <g clip-path="url(#pf7b4a2df8c)">
     <use xlink:href="#mf3ecce0a3c" x="150.1" y="156.762415" style="fill: #e69f00; stroke: #e69f00; stroke-width: 2"/>
    </g>
   </g>
   <g id="line2d_16">
    <path d="M 150.1 136.294405 
" clip-path="url(#pf7b4a2df8c)" style="fill: none; stroke: #e69f00; stroke-width: 1.5; stroke-linecap: square"/>
    <g clip-path="url(#pf7b4a2df8c)">
     <use xlink:href="#mf3ecce0a3c" x="150.1" y="136.294405" style="fill: #e69f00; stroke: #e69f00; stroke-width: 2"/>
    </g>
   </g>
   <g id="line2d_17">
    <path d="M 150.1 115.826395 
" clip-path="url(#pf7b4a2df8c)" style="fill: none; stroke: #e69f00; stroke-width: 1.5; stroke-linecap: square"/>
    <g clip-path="url(#pf7b4a2df8c)">
     <use xlink:href="#mf3ecce0a3c" x="150.1" y="115.826395" style="fill: #e69f00; stroke: #e69f00; stroke-width: 2"/>
    </g>
   </g>
   <g id="line2d_18">
    <path d="M 150.1 95.358385 
" clip-path="url(#pf7b4a2df8c)" style="fill: none; stroke: #e69f00; stroke-width: 1.5; stroke-linecap: square"/>
    <g clip-path="url(#pf7b4a2df8c)">
     <use xlink:href="#mf3ecce0a3c" x="150.1" y="95.358385" style="fill: #e69f00; stroke: #e69f00; stroke-width: 2"/>
    </g>
   </g>
   <g id="line2d_19">
    <path d="M 150.1 151.850092 
" clip-path="url(#pf7b4a2df8c)" style="fill: none; stroke: #d55e00; stroke-width: 1.5; stroke-linecap: square"/>
    <defs>
     <path id="ma2dc76e898" d="M 0 4.5 
L 0 -4.5 
" style="stroke: #d55e00; stroke-width: 2"/>
    </defs>
    <g clip-path="url(#pf7b4a2df8c)">
     <use xlink:href="#ma2dc76e898" x="150.1" y="151.850092" style="fill: #d55e00; stroke: #d55e00; stroke-width: 2"/>
    </g>
   </g>
   <g id="line2d_20">
    <path d="M 150.1 131.382083 
" clip-path="url(#pf7b4a2df8c)" style="fill: none; stroke: #d55e00; stroke-width: 1.5; stroke-linecap: square"/>
    <g clip-path="url(#pf7b4a2df8c)">
     <use xlink:href="#ma2dc76e898" x="150.1" y="131.382083" style="fill: #d55e00; stroke: #d55e00; stroke-width: 2"/>
    </g>
   </g>
   <g id="line2d_21">
    <path d="M 150.1 110.914073 
" clip-path="url(#pf7b4a2df8c)" style="fill: none; stroke: #d55e00; stroke-width: 1.5; stroke-linecap: square"/>
    <g clip-path="url(#pf7b4a2df8c)">
     <use xlink:href="#ma2dc76e898" x="150.1" y="110.914073" style="fill: #d55e00; stroke: #d55e00; stroke-width: 2"/>
    </g>
   </g>
   <g id="line2d_22">
    <path d="M 150.1 90.446063 
" clip-path="url(#pf7b4a2df8c)" style="fill: none; stroke: #d55e00; stroke-width: 1.5; stroke-linecap: square"/>
    <g clip-path="url(#pf7b4a2df8c)">
     <use xlink:href="#ma2dc76e898" x="150.1" y="90.446063" style="fill: #d55e00; stroke: #d55e00; stroke-width: 2"/>
    </g>
   </g>
   <g id="patch_15">
    <path d="M 150.1 167.7128 
L 150.1 84.408 
" style="fill: none; stroke: #000000; stroke-width: 0.8; stroke-linejoin: miter; stroke-linecap: square"/>
   </g>
   <g id="patch_16">
    <path d="M 150.1 167.7128 
L 557.28 167.7128 
" style="fill: none; stroke: #000000; stroke-width: 0.8; stroke-linejoin: miter; stroke-linecap: square"/>
   </g>
   <g id="text_12">
    <!-- Critical recall is zero in these validation fault categories -->
    <g transform="translate(186.744687 78.408) scale(0.12 -0.12)">
     <defs>
      <path id="DejaVuSans-7a" d="M 353 3500 
L 3084 3500 
L 3084 2975 
L 922 459 
L 3084 459 
L 3084 0 
L 275 0 
L 275 525 
L 2438 3041 
L 353 3041 
L 353 3500 
z
" transform="scale(0.015625)"/>
      <path id="DejaVuSans-68" d="M 3513 2113 
L 3513 0 
L 2938 0 
L 2938 2094 
Q 2938 2591 2744 2837 
Q 2550 3084 2163 3084 
Q 1697 3084 1428 2787 
Q 1159 2491 1159 1978 
L 1159 0 
L 581 0 
L 581 4863 
L 1159 4863 
L 1159 2956 
Q 1366 3272 1645 3428 
Q 1925 3584 2291 3584 
Q 2894 3584 3203 3211 
Q 3513 2838 3513 2113 
z
" transform="scale(0.015625)"/>
      <path id="DejaVuSans-76" d="M 191 3500 
L 800 3500 
L 1894 563 
L 2988 3500 
L 3597 3500 
L 2284 0 
L 1503 0 
L 191 3500 
z
" transform="scale(0.015625)"/>
      <path id="DejaVuSans-75" d="M 544 1381 
L 544 3500 
L 1119 3500 
L 1119 1403 
Q 1119 906 1312 657 
Q 1506 409 1894 409 
Q 2359 409 2629 706 
Q 2900 1003 2900 1516 
L 2900 3500 
L 3475 3500 
L 3475 0 
L 2900 0 
L 2900 538 
Q 2691 219 2414 64 
Q 2138 -91 1772 -91 
Q 1169 -91 856 284 
Q 544 659 544 1381 
z
M 1991 3584 
L 1991 3584 
z
" transform="scale(0.015625)"/>
      <path id="DejaVuSans-67" d="M 2906 1791 
Q 2906 2416 2648 2759 
Q 2391 3103 1925 3103 
Q 1463 3103 1205 2759 
Q 947 2416 947 1791 
Q 947 1169 1205 825 
Q 1463 481 1925 481 
Q 2391 481 2648 825 
Q 2906 1169 2906 1791 
z
M 3481 434 
Q 3481 -459 3084 -895 
Q 2688 -1331 1869 -1331 
Q 1566 -1331 1297 -1286 
Q 1028 -1241 775 -1147 
L 775 -588 
Q 1028 -725 1275 -790 
Q 1522 -856 1778 -856 
Q 2344 -856 2625 -561 
Q 2906 -266 2906 331 
L 2906 616 
Q 2728 306 2450 153 
Q 2172 0 1784 0 
Q 1141 0 747 490 
Q 353 981 353 1791 
Q 353 2603 747 3093 
Q 1141 3584 1784 3584 
Q 2172 3584 2450 3431 
Q 2728 3278 2906 2969 
L 2906 3500 
L 3481 3500 
L 3481 434 
z
" transform="scale(0.015625)"/>
     </defs>
     <use xlink:href="#DejaVuSans-43"/>
     <use xlink:href="#DejaVuSans-72" transform="translate(69.824219 0)"/>
     <use xlink:href="#DejaVuSans-69" transform="translate(110.9375 0)"/>
     <use xlink:href="#DejaVuSans-74" transform="translate(138.720703 0)"/>
     <use xlink:href="#DejaVuSans-69" transform="translate(177.929688 0)"/>
     <use xlink:href="#DejaVuSans-63" transform="translate(205.712891 0)"/>
     <use xlink:href="#DejaVuSans-61" transform="translate(260.693359 0)"/>
     <use xlink:href="#DejaVuSans-6c" transform="translate(321.972656 0)"/>
     <use xlink:href="#DejaVuSans-20" transform="translate(349.755859 0)"/>
     <use xlink:href="#DejaVuSans-72" transform="translate(381.542969 0)"/>
     <use xlink:href="#DejaVuSans-65" transform="translate(420.40625 0)"/>
     <use xlink:href="#DejaVuSans-63" transform="translate(481.929688 0)"/>
     <use xlink:href="#DejaVuSans-61" transform="translate(536.910156 0)"/>
     <use xlink:href="#DejaVuSans-6c" transform="translate(598.189453 0)"/>
     <use xlink:href="#DejaVuSans-6c" transform="translate(625.972656 0)"/>
     <use xlink:href="#DejaVuSans-20" transform="translate(653.755859 0)"/>
     <use xlink:href="#DejaVuSans-69" transform="translate(685.542969 0)"/>
     <use xlink:href="#DejaVuSans-73" transform="translate(713.326172 0)"/>
     <use xlink:href="#DejaVuSans-20" transform="translate(765.425781 0)"/>
     <use xlink:href="#DejaVuSans-7a" transform="translate(797.212891 0)"/>
     <use xlink:href="#DejaVuSans-65" transform="translate(849.703125 0)"/>
     <use xlink:href="#DejaVuSans-72" transform="translate(911.226562 0)"/>
     <use xlink:href="#DejaVuSans-6f" transform="translate(950.089844 0)"/>
     <use xlink:href="#DejaVuSans-20" transform="translate(1011.271484 0)"/>
     <use xlink:href="#DejaVuSans-69" transform="translate(1043.058594 0)"/>
     <use xlink:href="#DejaVuSans-6e" transform="translate(1070.841797 0)"/>
     <use xlink:href="#DejaVuSans-20" transform="translate(1134.220703 0)"/>
     <use xlink:href="#DejaVuSans-74" transform="translate(1166.007812 0)"/>
     <use xlink:href="#DejaVuSans-68" transform="translate(1205.216797 0)"/>
     <use xlink:href="#DejaVuSans-65" transform="translate(1268.595703 0)"/>
     <use xlink:href="#DejaVuSans-73" transform="translate(1330.119141 0)"/>
     <use xlink:href="#DejaVuSans-65" transform="translate(1382.21875 0)"/>
     <use xlink:href="#DejaVuSans-20" transform="translate(1443.742188 0)"/>
     <use xlink:href="#DejaVuSans-76" transform="translate(1475.529297 0)"/>
     <use xlink:href="#DejaVuSans-61" transform="translate(1534.708984 0)"/>
     <use xlink:href="#DejaVuSans-6c" transform="translate(1595.988281 0)"/>
     <use xlink:href="#DejaVuSans-69" transform="translate(1623.771484 0)"/>
     <use xlink:href="#DejaVuSans-64" transform="translate(1651.554688 0)"/>
     <use xlink:href="#DejaVuSans-61" transform="translate(1715.03125 0)"/>
     <use xlink:href="#DejaVuSans-74" transform="translate(1776.310547 0)"/>
     <use xlink:href="#DejaVuSans-69" transform="translate(1815.519531 0)"/>
     <use xlink:href="#DejaVuSans-6f" transform="translate(1843.302734 0)"/>
     <use xlink:href="#DejaVuSans-6e" transform="translate(1904.484375 0)"/>
     <use xlink:href="#DejaVuSans-20" transform="translate(1967.863281 0)"/>
     <use xlink:href="#DejaVuSans-66" transform="translate(1999.650391 0)"/>
     <use xlink:href="#DejaVuSans-61" transform="translate(2034.855469 0)"/>
     <use xlink:href="#DejaVuSans-75" transform="translate(2096.134766 0)"/>
     <use xlink:href="#DejaVuSans-6c" transform="translate(2159.513672 0)"/>
     <use xlink:href="#DejaVuSans-74" transform="translate(2187.296875 0)"/>
     <use xlink:href="#DejaVuSans-20" transform="translate(2226.505859 0)"/>
     <use xlink:href="#DejaVuSans-63" transform="translate(2258.292969 0)"/>
     <use xlink:href="#DejaVuSans-61" transform="translate(2313.273438 0)"/>
     <use xlink:href="#DejaVuSans-74" transform="translate(2374.552734 0)"/>
     <use xlink:href="#DejaVuSans-65" transform="translate(2413.761719 0)"/>
     <use xlink:href="#DejaVuSans-67" transform="translate(2475.285156 0)"/>
     <use xlink:href="#DejaVuSans-6f" transform="translate(2538.761719 0)"/>
     <use xlink:href="#DejaVuSans-72" transform="translate(2599.943359 0)"/>
     <use xlink:href="#DejaVuSans-69" transform="translate(2641.056641 0)"/>
     <use xlink:href="#DejaVuSans-65" transform="translate(2668.839844 0)"/>
     <use xlink:href="#DejaVuSans-73" transform="translate(2730.363281 0)"/>
    </g>
   </g>
   <g id="legend_1">
    <g id="patch_17">
     <path d="M 222.957969 209.302677 
L 242.957969 209.302677 
L 242.957969 202.302677 
L 222.957969 202.302677 
z
" style="fill: #0072b2"/>
    </g>
    <g id="text_13">
     <!-- NORMAL -->
     <g transform="translate(250.957969 209.302677) scale(0.1 -0.1)">
      <use xlink:href="#DejaVuSans-4e"/>
      <use xlink:href="#DejaVuSans-4f" transform="translate(74.804688 0)"/>
      <use xlink:href="#DejaVuSans-52" transform="translate(153.515625 0)"/>
      <use xlink:href="#DejaVuSans-4d" transform="translate(222.998047 0)"/>
      <use xlink:href="#DejaVuSans-41" transform="translate(309.277344 0)"/>
      <use xlink:href="#DejaVuSans-4c" transform="translate(377.685547 0)"/>
     </g>
    </g>
    <g id="patch_18">
     <path d="M 314.300156 209.302677 
L 334.300156 209.302677 
L 334.300156 202.302677 
L 314.300156 202.302677 
z
" style="fill: #e69f00"/>
    </g>
    <g id="text_14">
     <!-- WARNING -->
     <g transform="translate(342.300156 209.302677) scale(0.1 -0.1)">
      <defs>
       <path id="DejaVuSans-57" d="M 213 4666 
L 850 4666 
L 1831 722 
L 2809 4666 
L 3519 4666 
L 4500 722 
L 5478 4666 
L 6119 4666 
L 4947 0 
L 4153 0 
L 3169 4050 
L 2175 0 
L 1381 0 
L 213 4666 
z
" transform="scale(0.015625)"/>
       <path id="DejaVuSans-47" d="M 3809 666 
L 3809 1919 
L 2778 1919 
L 2778 2438 
L 4434 2438 
L 4434 434 
Q 4069 175 3628 42 
Q 3188 -91 2688 -91 
Q 1594 -91 976 548 
Q 359 1188 359 2328 
Q 359 3472 976 4111 
Q 1594 4750 2688 4750 
Q 3144 4750 3555 4637 
Q 3966 4525 4313 4306 
L 4313 3634 
Q 3963 3931 3569 4081 
Q 3175 4231 2741 4231 
Q 1884 4231 1454 3753 
Q 1025 3275 1025 2328 
Q 1025 1384 1454 906 
Q 1884 428 2741 428 
Q 3075 428 3337 486 
Q 3600 544 3809 666 
z
" transform="scale(0.015625)"/>
      </defs>
      <use xlink:href="#DejaVuSans-57"/>
      <use xlink:href="#DejaVuSans-41" transform="translate(93.376953 0)"/>
      <use xlink:href="#DejaVuSans-52" transform="translate(161.785156 0)"/>
      <use xlink:href="#DejaVuSans-4e" transform="translate(231.267578 0)"/>
      <use xlink:href="#DejaVuSans-49" transform="translate(306.072266 0)"/>
      <use xlink:href="#DejaVuSans-4e" transform="translate(335.564453 0)"/>
      <use xlink:href="#DejaVuSans-47" transform="translate(410.369141 0)"/>
     </g>
    </g>
    <g id="patch_19">
     <path d="M 411.087656 209.302677 
L 431.087656 209.302677 
L 431.087656 202.302677 
L 411.087656 202.302677 
z
" style="fill: #d55e00"/>
    </g>
    <g id="text_15">
     <!-- CRITICAL -->
     <g transform="translate(439.087656 209.302677) scale(0.1 -0.1)">
      <use xlink:href="#DejaVuSans-43"/>
      <use xlink:href="#DejaVuSans-52" transform="translate(69.824219 0)"/>
      <use xlink:href="#DejaVuSans-49" transform="translate(139.306641 0)"/>
      <use xlink:href="#DejaVuSans-54" transform="translate(168.798828 0)"/>
      <use xlink:href="#DejaVuSans-49" transform="translate(229.882812 0)"/>
      <use xlink:href="#DejaVuSans-43" transform="translate(259.375 0)"/>
      <use xlink:href="#DejaVuSans-41" transform="translate(329.199219 0)"/>
      <use xlink:href="#DejaVuSans-4c" transform="translate(397.607422 0)"/>
     </g>
    </g>
   </g>
  </g>
  <g id="text_16">
   <!-- Fault-category checks show missed elevated-risk cases -->
   <g transform="translate(23.04 17.981812) scale(0.14 -0.14)">
    <defs>
     <path id="DejaVuSans-Bold-46" d="M 588 4666 
L 3834 4666 
L 3834 3756 
L 1791 3756 
L 1791 2888 
L 3713 2888 
L 3713 1978 
L 1791 1978 
L 1791 0 
L 588 0 
L 588 4666 
z
" transform="scale(0.015625)"/>
     <path id="DejaVuSans-Bold-61" d="M 2106 1575 
Q 1756 1575 1579 1456 
Q 1403 1338 1403 1106 
Q 1403 894 1545 773 
Q 1688 653 1941 653 
Q 2256 653 2472 879 
Q 2688 1106 2688 1447 
L 2688 1575 
L 2106 1575 
z
M 3816 1997 
L 3816 0 
L 2688 0 
L 2688 519 
Q 2463 200 2181 54 
Q 1900 -91 1497 -91 
Q 953 -91 614 226 
Q 275 544 275 1050 
Q 275 1666 698 1953 
Q 1122 2241 2028 2241 
L 2688 2241 
L 2688 2328 
Q 2688 2594 2478 2717 
Q 2269 2841 1825 2841 
Q 1466 2841 1156 2769 
Q 847 2697 581 2553 
L 581 3406 
Q 941 3494 1303 3539 
Q 1666 3584 2028 3584 
Q 2975 3584 3395 3211 
Q 3816 2838 3816 1997 
z
" transform="scale(0.015625)"/>
     <path id="DejaVuSans-Bold-75" d="M 500 1363 
L 500 3500 
L 1625 3500 
L 1625 3150 
Q 1625 2866 1622 2436 
Q 1619 2006 1619 1863 
Q 1619 1441 1641 1255 
Q 1663 1069 1716 984 
Q 1784 875 1895 815 
Q 2006 756 2150 756 
Q 2500 756 2700 1025 
Q 2900 1294 2900 1772 
L 2900 3500 
L 4019 3500 
L 4019 0 
L 2900 0 
L 2900 506 
Q 2647 200 2364 54 
Q 2081 -91 1741 -91 
Q 1134 -91 817 281 
Q 500 653 500 1363 
z
" transform="scale(0.015625)"/>
     <path id="DejaVuSans-Bold-6c" d="M 538 4863 
L 1656 4863 
L 1656 0 
L 538 0 
L 538 4863 
z
" transform="scale(0.015625)"/>
     <path id="DejaVuSans-Bold-74" d="M 1759 4494 
L 1759 3500 
L 2913 3500 
L 2913 2700 
L 1759 2700 
L 1759 1216 
Q 1759 972 1856 886 
Q 1953 800 2241 800 
L 2816 800 
L 2816 0 
L 1856 0 
Q 1194 0 917 276 
Q 641 553 641 1216 
L 641 2700 
L 84 2700 
L 84 3500 
L 641 3500 
L 641 4494 
L 1759 4494 
z
" transform="scale(0.015625)"/>
     <path id="DejaVuSans-Bold-2d" d="M 347 2297 
L 2309 2297 
L 2309 1388 
L 347 1388 
L 347 2297 
z
" transform="scale(0.015625)"/>
     <path id="DejaVuSans-Bold-63" d="M 3366 3391 
L 3366 2478 
Q 3138 2634 2908 2709 
Q 2678 2784 2431 2784 
Q 1963 2784 1702 2511 
Q 1441 2238 1441 1747 
Q 1441 1256 1702 982 
Q 1963 709 2431 709 
Q 2694 709 2930 787 
Q 3166 866 3366 1019 
L 3366 103 
Q 3103 6 2833 -42 
Q 2563 -91 2291 -91 
Q 1344 -91 809 395 
Q 275 881 275 1747 
Q 275 2613 809 3098 
Q 1344 3584 2291 3584 
Q 2566 3584 2833 3536 
Q 3100 3488 3366 3391 
z
" transform="scale(0.015625)"/>
     <path id="DejaVuSans-Bold-65" d="M 4031 1759 
L 4031 1441 
L 1416 1441 
Q 1456 1047 1700 850 
Q 1944 653 2381 653 
Q 2734 653 3104 758 
Q 3475 863 3866 1075 
L 3866 213 
Q 3469 63 3072 -14 
Q 2675 -91 2278 -91 
Q 1328 -91 801 392 
Q 275 875 275 1747 
Q 275 2603 792 3093 
Q 1309 3584 2216 3584 
Q 3041 3584 3536 3087 
Q 4031 2591 4031 1759 
z
M 2881 2131 
Q 2881 2450 2695 2645 
Q 2509 2841 2209 2841 
Q 1884 2841 1681 2658 
Q 1478 2475 1428 2131 
L 2881 2131 
z
" transform="scale(0.015625)"/>
     <path id="DejaVuSans-Bold-67" d="M 2919 594 
Q 2688 288 2409 144 
Q 2131 0 1766 0 
Q 1125 0 706 504 
Q 288 1009 288 1791 
Q 288 2575 706 3076 
Q 1125 3578 1766 3578 
Q 2131 3578 2409 3434 
Q 2688 3291 2919 2981 
L 2919 3500 
L 4044 3500 
L 4044 353 
Q 4044 -491 3511 -936 
Q 2978 -1381 1966 -1381 
Q 1638 -1381 1331 -1331 
Q 1025 -1281 716 -1178 
L 716 -306 
Q 1009 -475 1290 -558 
Q 1572 -641 1856 -641 
Q 2406 -641 2662 -400 
Q 2919 -159 2919 353 
L 2919 594 
z
M 2181 2772 
Q 1834 2772 1640 2515 
Q 1447 2259 1447 1791 
Q 1447 1309 1634 1061 
Q 1822 813 2181 813 
Q 2531 813 2725 1069 
Q 2919 1325 2919 1791 
Q 2919 2259 2725 2515 
Q 2531 2772 2181 2772 
z
" transform="scale(0.015625)"/>
     <path id="DejaVuSans-Bold-6f" d="M 2203 2784 
Q 1831 2784 1636 2517 
Q 1441 2250 1441 1747 
Q 1441 1244 1636 976 
Q 1831 709 2203 709 
Q 2569 709 2762 976 
Q 2956 1244 2956 1747 
Q 2956 2250 2762 2517 
Q 2569 2784 2203 2784 
z
M 2203 3584 
Q 3106 3584 3614 3096 
Q 4122 2609 4122 1747 
Q 4122 884 3614 396 
Q 3106 -91 2203 -91 
Q 1297 -91 786 396 
Q 275 884 275 1747 
Q 275 2609 786 3096 
Q 1297 3584 2203 3584 
z
" transform="scale(0.015625)"/>
     <path id="DejaVuSans-Bold-72" d="M 3138 2547 
Q 2991 2616 2845 2648 
Q 2700 2681 2553 2681 
Q 2122 2681 1889 2404 
Q 1656 2128 1656 1613 
L 1656 0 
L 538 0 
L 538 3500 
L 1656 3500 
L 1656 2925 
Q 1872 3269 2151 3426 
Q 2431 3584 2822 3584 
Q 2878 3584 2943 3579 
Q 3009 3575 3134 3559 
L 3138 2547 
z
" transform="scale(0.015625)"/>
     <path id="DejaVuSans-Bold-79" d="M 78 3500 
L 1197 3500 
L 2138 1125 
L 2938 3500 
L 4056 3500 
L 2584 -331 
Q 2363 -916 2067 -1148 
Q 1772 -1381 1288 -1381 
L 641 -1381 
L 641 -647 
L 991 -647 
Q 1275 -647 1404 -556 
Q 1534 -466 1606 -231 
L 1638 -134 
L 78 3500 
z
" transform="scale(0.015625)"/>
     <path id="DejaVuSans-Bold-20" transform="scale(0.015625)"/>
     <path id="DejaVuSans-Bold-68" d="M 4056 2131 
L 4056 0 
L 2931 0 
L 2931 347 
L 2931 1625 
Q 2931 2084 2911 2256 
Q 2891 2428 2841 2509 
Q 2775 2619 2662 2680 
Q 2550 2741 2406 2741 
Q 2056 2741 1856 2470 
Q 1656 2200 1656 1722 
L 1656 0 
L 538 0 
L 538 4863 
L 1656 4863 
L 1656 2988 
Q 1909 3294 2193 3439 
Q 2478 3584 2822 3584 
Q 3428 3584 3742 3212 
Q 4056 2841 4056 2131 
z
" transform="scale(0.015625)"/>
     <path id="DejaVuSans-Bold-6b" d="M 538 4863 
L 1656 4863 
L 1656 2216 
L 2944 3500 
L 4244 3500 
L 2534 1894 
L 4378 0 
L 3022 0 
L 1656 1459 
L 1656 0 
L 538 0 
L 538 4863 
z
" transform="scale(0.015625)"/>
     <path id="DejaVuSans-Bold-73" d="M 3272 3391 
L 3272 2541 
Q 2913 2691 2578 2766 
Q 2244 2841 1947 2841 
Q 1628 2841 1473 2761 
Q 1319 2681 1319 2516 
Q 1319 2381 1436 2309 
Q 1553 2238 1856 2203 
L 2053 2175 
Q 2913 2066 3209 1816 
Q 3506 1566 3506 1031 
Q 3506 472 3093 190 
Q 2681 -91 1863 -91 
Q 1516 -91 1145 -36 
Q 775 19 384 128 
L 384 978 
Q 719 816 1070 734 
Q 1422 653 1784 653 
Q 2113 653 2278 743 
Q 2444 834 2444 1013 
Q 2444 1163 2330 1236 
Q 2216 1309 1875 1350 
L 1678 1375 
Q 931 1469 631 1722 
Q 331 1975 331 2491 
Q 331 3047 712 3315 
Q 1094 3584 1881 3584 
Q 2191 3584 2531 3537 
Q 2872 3491 3272 3391 
z
" transform="scale(0.015625)"/>
     <path id="DejaVuSans-Bold-77" d="M 225 3500 
L 1313 3500 
L 1900 1088 
L 2491 3500 
L 3425 3500 
L 4013 1113 
L 4603 3500 
L 5691 3500 
L 4769 0 
L 3547 0 
L 2956 2406 
L 2369 0 
L 1147 0 
L 225 3500 
z
" transform="scale(0.015625)"/>
     <path id="DejaVuSans-Bold-6d" d="M 3781 2919 
Q 3994 3244 4286 3414 
Q 4578 3584 4928 3584 
Q 5531 3584 5847 3212 
Q 6163 2841 6163 2131 
L 6163 0 
L 5038 0 
L 5038 1825 
Q 5041 1866 5042 1909 
Q 5044 1953 5044 2034 
Q 5044 2406 4934 2573 
Q 4825 2741 4581 2741 
Q 4263 2741 4089 2478 
Q 3916 2216 3909 1719 
L 3909 0 
L 2784 0 
L 2784 1825 
Q 2784 2406 2684 2573 
Q 2584 2741 2328 2741 
Q 2006 2741 1831 2477 
Q 1656 2213 1656 1722 
L 1656 0 
L 531 0 
L 531 3500 
L 1656 3500 
L 1656 2988 
Q 1863 3284 2130 3434 
Q 2397 3584 2719 3584 
Q 3081 3584 3359 3409 
Q 3638 3234 3781 2919 
z
" transform="scale(0.015625)"/>
     <path id="DejaVuSans-Bold-69" d="M 538 3500 
L 1656 3500 
L 1656 0 
L 538 0 
L 538 3500 
z
M 538 4863 
L 1656 4863 
L 1656 3950 
L 538 3950 
L 538 4863 
z
" transform="scale(0.015625)"/>
     <path id="DejaVuSans-Bold-64" d="M 2919 2988 
L 2919 4863 
L 4044 4863 
L 4044 0 
L 2919 0 
L 2919 506 
Q 2688 197 2409 53 
Q 2131 -91 1766 -91 
Q 1119 -91 703 423 
Q 288 938 288 1747 
Q 288 2556 703 3070 
Q 1119 3584 1766 3584 
Q 2128 3584 2408 3439 
Q 2688 3294 2919 2988 
z
M 2181 722 
Q 2541 722 2730 984 
Q 2919 1247 2919 1747 
Q 2919 2247 2730 2509 
Q 2541 2772 2181 2772 
Q 1825 2772 1636 2509 
Q 1447 2247 1447 1747 
Q 1447 1247 1636 984 
Q 1825 722 2181 722 
z
" transform="scale(0.015625)"/>
     <path id="DejaVuSans-Bold-76" d="M 97 3500 
L 1216 3500 
L 2088 1081 
L 2956 3500 
L 4078 3500 
L 2700 0 
L 1472 0 
L 97 3500 
z
" transform="scale(0.015625)"/>
    </defs>
    <use xlink:href="#DejaVuSans-Bold-46"/>
    <use xlink:href="#DejaVuSans-Bold-61" transform="translate(62.435547 0)"/>
    <use xlink:href="#DejaVuSans-Bold-75" transform="translate(129.916016 0)"/>
    <use xlink:href="#DejaVuSans-Bold-6c" transform="translate(201.107422 0)"/>
    <use xlink:href="#DejaVuSans-Bold-74" transform="translate(235.384766 0)"/>
    <use xlink:href="#DejaVuSans-Bold-2d" transform="translate(283.1875 0)"/>
    <use xlink:href="#DejaVuSans-Bold-63" transform="translate(324.691406 0)"/>
    <use xlink:href="#DejaVuSans-Bold-61" transform="translate(383.96875 0)"/>
    <use xlink:href="#DejaVuSans-Bold-74" transform="translate(451.449219 0)"/>
    <use xlink:href="#DejaVuSans-Bold-65" transform="translate(499.251953 0)"/>
    <use xlink:href="#DejaVuSans-Bold-67" transform="translate(567.074219 0)"/>
    <use xlink:href="#DejaVuSans-Bold-6f" transform="translate(638.65625 0)"/>
    <use xlink:href="#DejaVuSans-Bold-72" transform="translate(707.357422 0)"/>
    <use xlink:href="#DejaVuSans-Bold-79" transform="translate(756.673828 0)"/>
    <use xlink:href="#DejaVuSans-Bold-20" transform="translate(821.859375 0)"/>
    <use xlink:href="#DejaVuSans-Bold-63" transform="translate(856.673828 0)"/>
    <use xlink:href="#DejaVuSans-Bold-68" transform="translate(915.951172 0)"/>
    <use xlink:href="#DejaVuSans-Bold-65" transform="translate(987.142578 0)"/>
    <use xlink:href="#DejaVuSans-Bold-63" transform="translate(1054.964844 0)"/>
    <use xlink:href="#DejaVuSans-Bold-6b" transform="translate(1114.242188 0)"/>
    <use xlink:href="#DejaVuSans-Bold-73" transform="translate(1180.746094 0)"/>
    <use xlink:href="#DejaVuSans-Bold-20" transform="translate(1240.267578 0)"/>
    <use xlink:href="#DejaVuSans-Bold-73" transform="translate(1275.082031 0)"/>
    <use xlink:href="#DejaVuSans-Bold-68" transform="translate(1334.603516 0)"/>
    <use xlink:href="#DejaVuSans-Bold-6f" transform="translate(1405.794922 0)"/>
    <use xlink:href="#DejaVuSans-Bold-77" transform="translate(1474.496094 0)"/>
    <use xlink:href="#DejaVuSans-Bold-20" transform="translate(1566.878906 0)"/>
    <use xlink:href="#DejaVuSans-Bold-6d" transform="translate(1601.693359 0)"/>
    <use xlink:href="#DejaVuSans-Bold-69" transform="translate(1705.892578 0)"/>
    <use xlink:href="#DejaVuSans-Bold-73" transform="translate(1740.169922 0)"/>
    <use xlink:href="#DejaVuSans-Bold-73" transform="translate(1799.691406 0)"/>
    <use xlink:href="#DejaVuSans-Bold-65" transform="translate(1859.212891 0)"/>
    <use xlink:href="#DejaVuSans-Bold-64" transform="translate(1927.035156 0)"/>
    <use xlink:href="#DejaVuSans-Bold-20" transform="translate(1998.617188 0)"/>
    <use xlink:href="#DejaVuSans-Bold-65" transform="translate(2033.431641 0)"/>
    <use xlink:href="#DejaVuSans-Bold-6c" transform="translate(2101.253906 0)"/>
    <use xlink:href="#DejaVuSans-Bold-65" transform="translate(2135.53125 0)"/>
    <use xlink:href="#DejaVuSans-Bold-76" transform="translate(2203.353516 0)"/>
    <use xlink:href="#DejaVuSans-Bold-61" transform="translate(2268.539062 0)"/>
    <use xlink:href="#DejaVuSans-Bold-74" transform="translate(2336.019531 0)"/>
    <use xlink:href="#DejaVuSans-Bold-65" transform="translate(2383.822266 0)"/>
    <use xlink:href="#DejaVuSans-Bold-64" transform="translate(2451.644531 0)"/>
    <use xlink:href="#DejaVuSans-Bold-2d" transform="translate(2523.226562 0)"/>
    <use xlink:href="#DejaVuSans-Bold-72" transform="translate(2564.730469 0)"/>
    <use xlink:href="#DejaVuSans-Bold-69" transform="translate(2614.046875 0)"/>
    <use xlink:href="#DejaVuSans-Bold-73" transform="translate(2648.324219 0)"/>
    <use xlink:href="#DejaVuSans-Bold-6b" transform="translate(2707.845703 0)"/>
    <use xlink:href="#DejaVuSans-Bold-20" transform="translate(2774.349609 0)"/>
    <use xlink:href="#DejaVuSans-Bold-63" transform="translate(2809.164062 0)"/>
    <use xlink:href="#DejaVuSans-Bold-61" transform="translate(2868.441406 0)"/>
    <use xlink:href="#DejaVuSans-Bold-73" transform="translate(2935.921875 0)"/>
    <use xlink:href="#DejaVuSans-Bold-65" transform="translate(2995.443359 0)"/>
    <use xlink:href="#DejaVuSans-Bold-73" transform="translate(3063.265625 0)"/>
   </g>
  </g>
  <g id="text_17">
   <!-- Origin: synthetic development validation -->
   <g style="fill: #4b5563" transform="translate(365.83375 361.448312) scale(0.1 -0.1)">
    <defs>
     <path id="DejaVuSans-3a" d="M 750 794 
L 1409 794 
L 1409 0 
L 750 0 
L 750 794 
z
M 750 3309 
L 1409 3309 
L 1409 2516 
L 750 2516 
L 750 3309 
z
" transform="scale(0.015625)"/>
     <path id="DejaVuSans-70" d="M 1159 525 
L 1159 -1331 
L 581 -1331 
L 581 3500 
L 1159 3500 
L 1159 2969 
Q 1341 3281 1617 3432 
Q 1894 3584 2278 3584 
Q 2916 3584 3314 3078 
Q 3713 2572 3713 1747 
Q 3713 922 3314 415 
Q 2916 -91 2278 -91 
Q 1894 -91 1617 61 
Q 1341 213 1159 525 
z
M 3116 1747 
Q 3116 2381 2855 2742 
Q 2594 3103 2138 3103 
Q 1681 3103 1420 2742 
Q 1159 2381 1159 1747 
Q 1159 1113 1420 752 
Q 1681 391 2138 391 
Q 2594 391 2855 752 
Q 3116 1113 3116 1747 
z
" transform="scale(0.015625)"/>
     <path id="DejaVuSans-6d" d="M 3328 2828 
Q 3544 3216 3844 3400 
Q 4144 3584 4550 3584 
Q 5097 3584 5394 3201 
Q 5691 2819 5691 2113 
L 5691 0 
L 5113 0 
L 5113 2094 
Q 5113 2597 4934 2840 
Q 4756 3084 4391 3084 
Q 3944 3084 3684 2787 
Q 3425 2491 3425 1978 
L 3425 0 
L 2847 0 
L 2847 2094 
Q 2847 2600 2669 2842 
Q 2491 3084 2119 3084 
Q 1678 3084 1418 2786 
Q 1159 2488 1159 1978 
L 1159 0 
L 581 0 
L 581 3500 
L 1159 3500 
L 1159 2956 
Q 1356 3278 1631 3431 
Q 1906 3584 2284 3584 
Q 2666 3584 2933 3390 
Q 3200 3197 3328 2828 
z
" transform="scale(0.015625)"/>
    </defs>
    <use xlink:href="#DejaVuSans-4f"/>
    <use xlink:href="#DejaVuSans-72" transform="translate(78.710938 0)"/>
    <use xlink:href="#DejaVuSans-69" transform="translate(119.824219 0)"/>
    <use xlink:href="#DejaVuSans-67" transform="translate(147.607422 0)"/>
    <use xlink:href="#DejaVuSans-69" transform="translate(211.083984 0)"/>
    <use xlink:href="#DejaVuSans-6e" transform="translate(238.867188 0)"/>
    <use xlink:href="#DejaVuSans-3a" transform="translate(302.246094 0)"/>
    <use xlink:href="#DejaVuSans-20" transform="translate(335.9375 0)"/>
    <use xlink:href="#DejaVuSans-73" transform="translate(367.724609 0)"/>
    <use xlink:href="#DejaVuSans-79" transform="translate(419.824219 0)"/>
    <use xlink:href="#DejaVuSans-6e" transform="translate(479.003906 0)"/>
    <use xlink:href="#DejaVuSans-74" transform="translate(542.382812 0)"/>
    <use xlink:href="#DejaVuSans-68" transform="translate(581.591797 0)"/>
    <use xlink:href="#DejaVuSans-65" transform="translate(644.970703 0)"/>
    <use xlink:href="#DejaVuSans-74" transform="translate(706.494141 0)"/>
    <use xlink:href="#DejaVuSans-69" transform="translate(745.703125 0)"/>
    <use xlink:href="#DejaVuSans-63" transform="translate(773.486328 0)"/>
    <use xlink:href="#DejaVuSans-20" transform="translate(828.466797 0)"/>
    <use xlink:href="#DejaVuSans-64" transform="translate(860.253906 0)"/>
    <use xlink:href="#DejaVuSans-65" transform="translate(923.730469 0)"/>
    <use xlink:href="#DejaVuSans-76" transform="translate(985.253906 0)"/>
    <use xlink:href="#DejaVuSans-65" transform="translate(1044.433594 0)"/>
    <use xlink:href="#DejaVuSans-6c" transform="translate(1105.957031 0)"/>
    <use xlink:href="#DejaVuSans-6f" transform="translate(1133.740234 0)"/>
    <use xlink:href="#DejaVuSans-70" transform="translate(1194.921875 0)"/>
    <use xlink:href="#DejaVuSans-6d" transform="translate(1258.398438 0)"/>
    <use xlink:href="#DejaVuSans-65" transform="translate(1355.810547 0)"/>
    <use xlink:href="#DejaVuSans-6e" transform="translate(1417.333984 0)"/>
    <use xlink:href="#DejaVuSans-74" transform="translate(1480.712891 0)"/>
    <use xlink:href="#DejaVuSans-20" transform="translate(1519.921875 0)"/>
    <use xlink:href="#DejaVuSans-76" transform="translate(1551.708984 0)"/>
    <use xlink:href="#DejaVuSans-61" transform="translate(1610.888672 0)"/>
    <use xlink:href="#DejaVuSans-6c" transform="translate(1672.167969 0)"/>
    <use xlink:href="#DejaVuSans-69" transform="translate(1699.951172 0)"/>
    <use xlink:href="#DejaVuSans-64" transform="translate(1727.734375 0)"/>
    <use xlink:href="#DejaVuSans-61" transform="translate(1791.210938 0)"/>
    <use xlink:href="#DejaVuSans-74" transform="translate(1852.490234 0)"/>
    <use xlink:href="#DejaVuSans-69" transform="translate(1891.699219 0)"/>
    <use xlink:href="#DejaVuSans-6f" transform="translate(1919.482422 0)"/>
    <use xlink:href="#DejaVuSans-6e" transform="translate(1980.664062 0)"/>
   </g>
  </g>
 </g>
 <defs>
  <clipPath id="pf7b4a2df8c">
   <rect x="150.1" y="84.408" width="407.18" height="83.3048"/>
  </clipPath>
 </defs>
</svg>
